<?xml version="1.0" encoding="utf-8"?>
<!-- Generated by IcoMoon.io -->
<svg version="1.1" xmlns="http://www.w3.org/2000/svg" xmlns:xlink="http://www.w3.org/1999/xlink" width="752" height="80" viewBox="0 0 752 80">
<svg id="icon-profile" width="32" height="32" viewBox="0 0 32 32" x="0" y="0">
<path d="M28 25h-3v-1c0.553 0 1-0.448 1-1 0-0.553-0.447-1-1-1h-2c-0.553 0-1 0.447-1 1 0 0.552 0.447 1 1 1v1h-13v-1c0.553 0 1-0.448 1-1 0-0.553-0.447-1-1-1h-2c-0.553 0-1 0.447-1 1 0 0.552 0.447 1 1 1v1h-4c-1.104 0-2-0.896-2-2v-14c0-1.104 0.896-2 2-2h24c1.104 0 2 0.896 2 2v14c0 1.104-0.896 2-2 2zM10 9.812c-1.208 0-2.188 1.287-2.188 2.875s0.98 2.875 2.188 2.875 2.188-1.287 2.188-2.875-0.98-2.875-2.188-2.875zM13.49 16.688c-0.539-0.359-2.091-0.598-2.091-0.598s-1.006 1.075-1.433 1.075c-0.428 0-1.434-1.075-1.434-1.075s-1.552 0.238-2.090 0.598c-0.539 0.358-0.777 2.261-0.777 2.261h8.615c0.001-0.001-0.157-1.84-0.79-2.261zM26 11h-9v1h9v-1zM26 13h-9v1h9v-1zM26 15h-9v1h9v-1zM26 17h-9v1h9v-1z"></path>
</svg>
<svg id="icon-addressbook" width="32" height="32" viewBox="0 0 32 32" x="48" y="0">
<path d="M27 17.938v-3h2v3h-2zM27 11h2v3h-2v-3zM27 7h2v3h-2v-3zM24 29h-18c-1.104 0-2-0.896-2-2h0.5c0.828 0 1.5-0.672 1.5-1.5s-0.672-1.5-1.5-1.5h-0.5v-1h0.5c0.828 0 1.5-0.672 1.5-1.5s-0.672-1.5-1.5-1.5h-0.5v-1h0.5c0.828 0 1.5-0.672 1.5-1.5s-0.672-1.5-1.5-1.5h-0.5v-1h0.5c0.828 0 1.5-0.672 1.5-1.5s-0.672-1.5-1.5-1.5h-0.5v-1h0.5c0.828 0 1.5-0.672 1.5-1.5s-0.672-1.5-1.5-1.5h-0.5v-3c0-1.104 0.896-2 2-2h18c0.738 0 1.376 0.404 1.723 1h-19.723c-0.553 0-1 0.447-1 1 0 0.552 0.447 1 1 1h20v21c0 1.104-0.896 2-2 2zM15.5 9.562c-1.208 0-2.188 1.287-2.188 2.875s0.979 2.875 2.188 2.875 2.188-1.287 2.188-2.875-0.98-2.875-2.188-2.875zM18.99 16.688c-0.539-0.359-2.091-0.598-2.091-0.598s-1.006 1.075-1.433 1.075c-0.428 0-1.434-1.075-1.434-1.075s-1.552 0.238-2.090 0.598c-0.539 0.358-0.777 2.261-0.777 2.261h8.615c0.001-0.001-0.157-1.84-0.79-2.261zM5 9.5c0 0.276-0.224 0.5-0.5 0.5h-1c-0.276 0-0.5-0.224-0.5-0.5s0.224-0.5 0.5-0.5h1c0.276 0 0.5 0.224 0.5 0.5zM3.5 13h1c0.276 0 0.5 0.224 0.5 0.5s-0.224 0.5-0.5 0.5h-1c-0.276 0-0.5-0.224-0.5-0.5s0.224-0.5 0.5-0.5zM3.5 17h1c0.276 0 0.5 0.224 0.5 0.5s-0.224 0.5-0.5 0.5h-1c-0.276 0-0.5-0.224-0.5-0.5s0.224-0.5 0.5-0.5zM3.5 21h1c0.276 0 0.5 0.224 0.5 0.5s-0.224 0.5-0.5 0.5h-1c-0.276 0-0.5-0.224-0.5-0.5s0.224-0.5 0.5-0.5zM3.5 25h1c0.276 0 0.5 0.224 0.5 0.5s-0.224 0.5-0.5 0.5h-1c-0.276 0-0.5-0.224-0.5-0.5s0.224-0.5 0.5-0.5z"></path>
</svg>
<svg id="icon-info" width="32" height="32" viewBox="0 0 32 32" x="96" y="0">
<path d="M16.247 4.733c0 1.684 1.271 2.825 2.84 2.825s2.842-1.142 2.842-2.825c0-1.685-1.272-2.826-2.842-2.826-1.568 0-2.84 1.141-2.84 2.826zM10.096 14.375c0 0.334-0.061 1.163 0.008 1.662l2.479-2.983c0.513-0.562 1.106-0.955 1.409-0.849s0.47 0.463 0.371 0.795l-4.103 13.59c-0.473 1.588 0.421 3.148 2.599 3.504 3.189 0 5.084-2.158 6.948-4.955 0-0.334 0.111-1.213 0.044-1.713l-2.479 2.982c-0.514 0.562-1.151 0.955-1.455 0.85-0.28-0.098-0.444-0.41-0.389-0.721l4.132-13.653c0.344-1.734-0.59-3.312-2.564-3.514-2.076 0.001-5.136 2.209-7 5.005z"></path>
</svg>
<svg id="icon-home3" width="32" height="32" viewBox="0 0 32 32" x="0" y="48">
<path d="M32 19l-6-6v-9h-4v5l-6-6-16 16v1h4v10h10v-6h4v6h10v-10h4z"></path>
</svg>
</svg>
