<?xml version="1.0" encoding="utf-8"?>
<!-- Generated by IcoMoon.io -->
<svg version="1.1" xmlns="http://www.w3.org/2000/svg" xmlns:xlink="http://www.w3.org/1999/xlink" width="752" height="120" viewBox="0 0 752 120">
<svg id="icon-profile" width="32" height="32" viewBox="0 0 32 32" x="0" y="0">
<path d="M28 25h-3v-1c0.553 0 1-0.448 1-1 0-0.553-0.447-1-1-1h-2c-0.553 0-1 0.447-1 1 0 0.552 0.447 1 1 1v1h-13v-1c0.553 0 1-0.448 1-1 0-0.553-0.447-1-1-1h-2c-0.553 0-1 0.447-1 1 0 0.552 0.447 1 1 1v1h-4c-1.104 0-2-0.896-2-2v-14c0-1.104 0.896-2 2-2h24c1.104 0 2 0.896 2 2v14c0 1.104-0.896 2-2 2zM10 9.812c-1.208 0-2.188 1.287-2.188 2.875s0.98 2.875 2.188 2.875 2.188-1.287 2.188-2.875-0.98-2.875-2.188-2.875zM13.49 16.688c-0.539-0.359-2.091-0.598-2.091-0.598s-1.006 1.075-1.433 1.075c-0.428 0-1.434-1.075-1.434-1.075s-1.552 0.238-2.090 0.598c-0.539 0.358-0.777 2.261-0.777 2.261h8.615c0.001-0.001-0.157-1.84-0.79-2.261zM26 11h-9v1h9v-1zM26 13h-9v1h9v-1zM26 15h-9v1h9v-1zM26 17h-9v1h9v-1z"></path>
</svg>
<svg id="icon-envelope" width="24" height="24" viewBox="0 0 24 24" x="0" y="48">
<path d="M1 6v13h21v-13h-21zM3 17v-7.866l15.544 7.866h-15.544zM20 15.949l-6.378-3.407 6.378-3.408v6.815zM12.088 11.408l-6.706-3.408h13.195l-6.489 3.408z"></path>
</svg>
<svg id="icon-home" width="32" height="32" viewBox="0 0 32 32" x="0" y="88">
<path d="M32 18.451l-16-12.42-16 12.42v-5.064l16-12.42 16 12.42zM28 18v12h-8v-8h-8v8h-8v-12l12-9z"></path>
</svg>
<svg id="icon-qrcode" width="32" height="32" viewBox="0 0 32 32" x="48" y="88">
<path d="M10 2h-8v8h8v-8zM12 0v0 12h-12v-12h12zM4 4h4v4h-4zM30 2h-8v8h8v-8zM32 0v0 12h-12v-12h12zM24 4h4v4h-4zM10 22h-8v8h8v-8zM12 20v0 12h-12v-12h12zM4 24h4v4h-4zM14 0h2v2h-2zM16 2h2v2h-2zM14 4h2v2h-2zM16 6h2v2h-2zM14 8h2v2h-2zM16 10h2v2h-2zM14 12h2v2h-2zM14 16h2v2h-2zM16 18h2v2h-2zM14 20h2v2h-2zM16 22h2v2h-2zM14 24h2v2h-2zM16 26h2v2h-2zM14 28h2v2h-2zM16 30h2v2h-2zM30 16h2v2h-2zM2 16h2v2h-2zM4 14h2v2h-2zM0 14h2v2h-2zM8 14h2v2h-2zM10 16h2v2h-2zM12 14h2v2h-2zM18 16h2v2h-2zM20 14h2v2h-2zM22 16h2v2h-2zM24 14h2v2h-2zM26 16h2v2h-2zM28 14h2v2h-2zM30 20h2v2h-2zM18 20h2v2h-2zM20 18h2v2h-2zM22 20h2v2h-2zM26 20h2v2h-2zM28 18h2v2h-2zM30 24h2v2h-2zM18 24h2v2h-2zM20 22h2v2h-2zM24 22h2v2h-2zM26 24h2v2h-2zM28 22h2v2h-2zM30 28h2v2h-2zM20 26h2v2h-2zM22 28h2v2h-2zM24 26h2v2h-2zM26 28h2v2h-2zM20 30h2v2h-2zM24 30h2v2h-2zM28 30h2v2h-2z"></path>
</svg>
</svg>
